<svg xmlns="http://www.w3.org/2000/svg" version="1.1"
  xmlns:xlink="http://www.w3.org/1999/xlink" width="512" height="512" x="0" y="0" viewBox="0 0 24 24" style="enable-background:new 0 0 512 512" xml:space="preserve" class="">
  <g transform="matrix(1.2000000000000002,0,0,1.2000000000000002,-2.400000000000004,-2.400000000000004)">
    <path d="m14.72 8.79-4.29 4.3-1.65-1.65a1 1 0 1 0-1.41 1.41l2.35 2.36a1 1 0 0 0 .71.29 1 1 0 0 0 .7-.29l5-5a1 1 0 0 0 0-1.42 1 1 0 0 0-1.41 0zM12 2a10 10 0 1 0 10 10A10 10 0 0 0 12 2zm0 18a8 8 0 1 1 8-8 8 8 0 0 1-8 8z" fill="#ffffff" opacity="1" data-original="#000000" class=""></path>
  </g>
</svg>